<?xml version="1.0" encoding="UTF-8" standalone="no"?>
<!-- <svg width="195.529" height="61.184" viewBox="0 0 51.734 16.188" xmlns="http://www.w3.org/2000/svg"> -->

<svg
   width="293.29349"
   height="91.394531"
   viewBox="0 0 51.734 16.120714"
   version="1.1"
   id="svg4"
   sodipodi:docname="logo-alt.svg"
   inkscape:version="1.3.2 (091e20ef0f, 2023-11-25)"
   xmlns:inkscape="http://www.inkscape.org/namespaces/inkscape"
   xmlns:sodipodi="http://sodipodi.sourceforge.net/DTD/sodipodi-0.dtd"
   xmlns="http://www.w3.org/2000/svg"
   xmlns:svg="http://www.w3.org/2000/svg">
  <defs
     id="defs4" />
  <sodipodi:namedview
     id="namedview4"
     pagecolor="#ffffff"
     bordercolor="#000000"
     borderopacity="0.25"
     inkscape:showpageshadow="2"
     inkscape:pageopacity="0.0"
     inkscape:pagecheckerboard="0"
     inkscape:deskcolor="#d1d1d1"
     inkscape:zoom="0.80203359"
     inkscape:cx="231.28707"
     inkscape:cy="165.20505"
     inkscape:window-width="1402"
     inkscape:window-height="1059"
     inkscape:window-x="962"
     inkscape:window-y="1069"
     inkscape:window-maximized="1"
     inkscape:current-layer="svg4" />
  <path
     style="font-size:85.3333px;font-family:'Noto Sans';-inkscape-font-specification:'Noto Sans';white-space:pre;fill:#960000;fill-opacity:1;stroke-width:0.264583"
     d="M 0,16.120891 H 2.032 V 8.6018904 h 8.264 v -1.784 H 2.032 V -1.0964709e-4 H 0 Z"
     id="path1"
     sodipodi:nodetypes="ccccccccc" />
  <path
     id="path2"
     style="font-size:85.3333px;font-family:'Noto Sans';-inkscape-font-specification:'Noto Sans';white-space:pre;fill:#d14b03;fill-opacity:1;stroke-width:0.264585;stroke-dasharray:none"
     d="M 18.043788,16.120891 24.316997,-1.7860709e-4 h 1.829012 A 1078.59,1078.59 0 0 1 20.097421,16.120891 Z m 13.311234,0 -1.915139,-4.923069 h -6.389999 l 0.676965,-1.8059289 h 5.103248 L 27.024168,4.5146444 c -0.046,-0.12 -0.120999,-0.337883 -0.225999,-0.653883 -0.106,-0.316 -0.211262,-0.639867 -0.316262,-0.971867 -0.056,-0.21 -0.102762,-0.380203 -0.146762,-0.530203 L 27.205037,-1.7860709e-4 33.455164,16.120891 Z" />
  <g
     id="g1"
     transform="translate(0,-0.06693123)">
    <path
       style="font-size:85.3333px;font-family:'Noto Sans';-inkscape-font-specification:'Noto Sans';white-space:pre;fill:#f87c32;fill-opacity:1;stroke-width:0.264583"
       d="m 38.451,0.066822 5.013,7.721 -5.351,8.4 h 2.145 l 4.335,-7 4.267,7 h 2.303 c -3.394,-5.446 -7.053,-10.681 -10.453,-16.121 z"
       id="path3" />
    <path
       style="font-size:85.3333px;font-family:'Noto Sans';-inkscape-font-specification:'Noto Sans';white-space:pre;fill:#ffba6e;fill-opacity:1;stroke-width:0.264583"
       d="m 46.744,7.742822 4.99,-7.676 h -2.145 l -3.974,6.321 z"
       id="path4" />
  </g>
  <path
     d="m 11.354,16.120891 h 2.032 V 2.4735291e-4 h -2.032 z"
     style="font-size:85.3333px;font-family:'Noto Sans';-inkscape-font-specification:'Noto Sans';white-space:pre;fill:#b42602;fill-opacity:1;stroke-width:0.264583"
     id="path1-3" />
</svg>
