<!-- <svg width="195.529" height="61.184" viewBox="0 0 51.734 16.188" xmlns="http://www.w3.org/2000/svg"> -->
<svg width="293.2935" height="91.776" viewBox="0 0 51.734 16.188" xmlns="http://www.w3.org/2000/svg">
  <path style="font-size:85.3333px;font-family:'Noto Sans';-inkscape-font-specification:'Noto Sans';white-space:pre;fill:#a12000;stroke-width:.264583" d="M50.688 118.29h-2.032v-16.121h2.032zm11.354 0H60.01v-7.519h-8.264v-1.784h8.264v-6.818h2.032z" transform="translate(-48.656 -102.169)"/>
  <path style="font-size:85.3333px;font-family:'Noto Sans';-inkscape-font-specification:'Noto Sans';white-space:pre;fill:#d14b03;stroke-width:.264583" d="m76.86 102.169-.87 2.359c.044.15.091.32.147.53.105.332.21.656.316.972.105.316.18.534.226.654l1.806 4.877h-5.103l-.677 1.806h6.39l1.941 4.99h2.1zm-7.133 16.188h-2.054l6.299-16.188h1.829a1078.59 1078.59 0 0 1-6.074 16.188z" transform="translate(-49.655 -102.169)"/>
  <path style="font-size:85.3333px;font-family:'Noto Sans';-inkscape-font-specification:'Noto Sans';white-space:pre;fill:#f87c32;stroke-width:.264583" d="m113.802 69.143 5.013 7.721-5.351 8.4h2.145l4.335-7 4.267 7h2.303c-3.394-5.446-7.053-10.681-10.453-16.121z" transform="translate(-75.351 -69.143)"/>
  <path style="font-size:85.3333px;font-family:'Noto Sans';-inkscape-font-specification:'Noto Sans';white-space:pre;fill:#ffba6e;fill-opacity:1;stroke-width:.264583" d="m122.095 76.819 4.99-7.676h-2.145l-3.974 6.321z" transform="translate(-75.351 -69.143)"/>
</svg>
